<svg width="36" height="36" viewBox="0 0 36 36" fill="none" xmlns="http://www.w3.org/2000/svg">
<g clip-path="url(#clip0)">
<path d="M30.1597 25.1776V29.2215C30.1597 30.1078 29.5069 30.941 28.35 31.6734C28.1855 31.7743 28.0104 31.8803 27.8193 31.9759C27.8193 31.9759 27.814 31.9759 27.814 31.9812C27.6495 32.0715 27.4744 32.1564 27.2887 32.2466C26.6678 32.5385 25.9513 32.8091 25.1659 33.0479C24.9907 33.101 24.8155 33.154 24.6352 33.2071H24.6299C24.4601 33.2549 24.2849 33.3026 24.1045 33.3504C23.4359 33.5202 22.73 33.6741 21.9817 33.8015C21.8066 33.8333 21.6315 33.8652 21.451 33.8918H21.4457C21.2706 33.9183 21.1008 33.95 20.9204 33.9713C20.2358 34.0721 19.5299 34.1518 18.7975 34.2154C18.6224 34.2313 18.4472 34.2473 18.2669 34.2579H18.2616C18.0864 34.2738 17.9166 34.2845 17.7362 34.2951C17.0463 34.3375 16.3352 34.3641 15.6134 34.3694C15.4383 34.3747 15.2631 34.3747 15.0827 34.3747H15.0774C14.897 34.3747 14.7272 34.3747 14.552 34.3694C13.8303 34.3641 13.1192 34.3375 12.4292 34.2951C12.2488 34.2845 12.0737 34.2739 11.8986 34.2579H11.8932C11.7128 34.2473 11.543 34.2313 11.3679 34.2154C10.6355 34.1518 9.92971 34.0721 9.24506 33.9713C9.06463 33.9501 8.88951 33.9183 8.71439 33.8918H8.70909C8.52866 33.8652 8.35884 33.8333 8.18372 33.8015C7.43542 33.6741 6.72963 33.5202 6.0609 33.3504C5.88047 33.3026 5.70005 33.2549 5.53023 33.2071H5.52493C5.3445 33.154 5.17468 33.101 4.99956 33.0479C4.21413 32.8091 3.49766 32.5385 2.87674 32.2466C2.69101 32.1617 2.51589 32.0715 2.34607 31.9759C2.34607 31.9759 2.34076 31.9759 2.34076 31.9706C2.15504 31.8804 1.97991 31.7796 1.8154 31.6735C0.658049 30.9463 0 30.1078 0 29.2215V25.1776H30.1597Z" fill="#F6C358"/>
<path d="M30.1597 25.1776C30.1597 26.0639 29.5069 26.8971 28.35 27.6189C28.1802 27.7303 28.0051 27.8364 27.814 27.9321C27.6495 28.0275 27.4743 28.1124 27.2886 28.2027C26.6677 28.4946 25.9512 28.7599 25.1658 29.004C24.9907 29.0571 24.8155 29.1102 24.6351 29.1631H24.6298C24.46 29.211 24.2849 29.2588 24.1044 29.3064C23.4358 29.4763 22.7299 29.6302 21.9816 29.7576C21.8065 29.7895 21.6314 29.8213 21.451 29.8478H21.4456C21.2705 29.8744 21.1007 29.9062 20.9203 29.9274C20.2357 30.0283 19.5298 30.1079 18.7975 30.1716C18.6223 30.1875 18.4471 30.2034 18.2668 30.214H18.2615C18.0864 30.2299 17.9166 30.2405 17.7361 30.2512C17.0462 30.2937 16.3351 30.3202 15.6133 30.3255C15.4382 30.3308 15.2631 30.3308 15.0826 30.3308H15.0773C14.8969 30.3308 14.7271 30.3308 14.552 30.3255C13.8302 30.3203 13.1191 30.2937 12.4291 30.2512C12.2487 30.2405 12.0736 30.2299 11.8985 30.214H11.8932C11.7127 30.2034 11.5429 30.1875 11.3678 30.1716C10.6354 30.1079 9.92963 30.0283 9.24498 29.9274C9.06456 29.9062 8.88943 29.8744 8.71431 29.8478H8.70901C8.52858 29.8213 8.35877 29.7895 8.18365 29.7576C7.43534 29.6302 6.72956 29.4763 6.06082 29.3064C5.88039 29.2588 5.69997 29.211 5.53015 29.1631H5.52485C5.34442 29.1102 5.17461 29.0571 4.99948 29.004C4.21405 28.7652 3.49758 28.4946 2.87666 28.2027C2.69093 28.1177 2.51581 28.0275 2.34599 27.9321C2.34599 27.9321 2.34069 27.9321 2.34069 27.9268C2.15496 27.8364 1.97984 27.7357 1.81532 27.6296C0.65805 26.9024 0 26.0639 0 25.1776C0 22.3331 6.75577 20.0245 15.0825 20.0245C23.4092 20.0245 30.1597 22.3331 30.1597 25.1776Z" fill="#FCD462"/>
<path d="M15.0361 28.8908C14.8859 28.8908 14.7432 28.8905 14.5959 28.8861C13.9014 28.8807 13.2136 28.8565 12.5172 28.8139C12.3476 28.8038 12.1872 28.7942 12.0269 28.7799L11.9627 28.7741H11.9377C11.7956 28.7649 11.6602 28.7522 11.5214 28.7396C10.7571 28.673 10.0905 28.5964 9.45446 28.5029C9.30802 28.4851 9.20623 28.4682 9.10522 28.4518L8.81902 28.4077C8.71239 28.3904 8.44141 28.3407 8.44141 28.3407C7.7573 28.2245 7.09963 28.0848 6.41452 27.9109C6.25585 27.8687 6.08288 27.823 5.91975 27.7771L5.41607 27.6256C4.82029 27.4444 4.27117 27.245 3.78017 27.0312V27.0268L2.98121 26.6372L2.72291 26.4919H2.71238C2.67371 26.4687 2.63458 26.4446 2.59568 26.4195C1.73883 25.8807 1.43994 25.4152 1.43994 25.1776C1.43994 23.8687 6.61939 21.4646 15.0824 21.4646C23.542 21.4646 28.7195 23.8686 28.7195 25.1776C28.7195 25.4145 28.423 25.876 27.5877 26.3971C27.4116 26.5122 27.2877 26.585 27.1693 26.6443L27.0903 26.687C26.9594 26.7632 26.8192 26.8297 26.6718 26.9015C26.1463 27.1485 25.4943 27.3938 24.7382 27.6289L24.2397 27.7771C24.0765 27.8228 23.9085 27.8687 23.7353 27.9147C23.0649 28.0846 22.4076 28.2242 21.7401 28.3379C21.598 28.3637 21.4668 28.3876 21.3351 28.4087L21.0435 28.4537C20.9479 28.4694 20.8525 28.4856 20.7529 28.4973C20.0737 28.5965 19.4072 28.6731 18.6724 28.7371C18.5203 28.7509 18.3727 28.7643 18.2219 28.7741L18.1326 28.78C17.9725 28.7943 17.8168 28.8039 17.6519 28.8135C16.9513 28.8566 16.2634 28.8808 15.6028 28.8854C15.423 28.8906 15.2723 28.8908 15.12 28.8908C15.1076 28.8908 15.0497 28.8908 15.0361 28.8908Z" fill="#F6C358"/>
<path d="M2.87628 28.2026V32.2465C2.69055 32.1617 2.51543 32.0714 2.34561 31.9758C2.34561 31.9758 2.3403 31.9758 2.3403 31.9705C2.15458 31.8804 1.97945 31.7796 1.81494 31.6734V27.6295C1.97945 27.7356 2.15458 27.8364 2.3403 27.9267C2.3403 27.932 2.34561 27.932 2.34561 27.932C2.51543 28.0275 2.69055 28.1177 2.87628 28.2026Z" fill="#DC8744"/>
<path d="M6.0606 29.3064V33.3504C5.88018 33.3026 5.69975 33.2549 5.52994 33.2071H5.52463C5.34421 33.154 5.17439 33.101 4.99927 33.0479V29.004C5.17439 29.057 5.34421 29.1102 5.52463 29.1631H5.52994C5.69975 29.2109 5.88018 29.2588 6.0606 29.3064Z" fill="#DC8744"/>
<path d="M9.24469 29.9274V33.9713C9.06426 33.9501 8.88914 33.9183 8.71402 33.8918H8.70871C8.52829 33.8652 8.35847 33.8334 8.18335 33.8015V29.7576C8.35847 29.7895 8.52829 29.8213 8.70871 29.8478H8.71402C8.88914 29.8743 9.06426 29.9062 9.24469 29.9274Z" fill="#DC8744"/>
<path d="M12.4288 30.2511V34.2951C12.2483 34.2845 12.0732 34.2739 11.8981 34.2579H11.8928C11.7124 34.2473 11.5426 34.2313 11.3674 34.2154V30.1716C11.5426 30.1875 11.7124 30.2034 11.8928 30.214H11.8981C12.0732 30.2298 12.2483 30.2404 12.4288 30.2511Z" fill="#DC8744"/>
<path d="M15.6131 30.3254V34.3693C15.438 34.3746 15.2628 34.3746 15.0824 34.3746H15.0771C14.8967 34.3746 14.7269 34.3746 14.5518 34.3693V30.3254C14.7269 30.3307 14.8967 30.3307 15.0771 30.3307H15.0824C15.2628 30.3307 15.438 30.3307 15.6131 30.3254Z" fill="#DC8744"/>
<path d="M18.7974 30.1716V34.2154C18.6223 34.2313 18.4471 34.2473 18.2668 34.2579H18.2614C18.0863 34.2738 17.9165 34.2845 17.7361 34.2951V30.2511C17.9165 30.2405 18.0863 30.2299 18.2614 30.214H18.2668C18.4471 30.2033 18.6222 30.1875 18.7974 30.1716Z" fill="#DC8744"/>
<path d="M21.9815 29.7576V33.8015C21.8064 33.8334 21.6313 33.8652 21.4508 33.8918H21.4455C21.2704 33.9183 21.1006 33.95 20.9202 33.9713V29.9274C21.1006 29.9062 21.2704 29.8744 21.4455 29.8478H21.4508C21.6313 29.8213 21.8064 29.7894 21.9815 29.7576Z" fill="#DC8744"/>
<path d="M25.1658 29.004V33.0479C24.9907 33.101 24.8155 33.154 24.6352 33.2071H24.6299C24.46 33.2549 24.2849 33.3026 24.1045 33.3504V29.3064C24.2849 29.2588 24.46 29.2109 24.6299 29.1631H24.6352C24.8155 29.1102 24.9906 29.057 25.1658 29.004Z" fill="#DC8744"/>
<path d="M28.3499 27.6189V31.6734C28.1854 31.7743 28.0103 31.8804 27.8192 31.9759C27.8192 31.9759 27.8139 31.9759 27.8139 31.9812C27.6494 32.0715 27.4743 32.1564 27.2886 32.2466V28.2027C27.4743 28.1124 27.6494 28.0275 27.8139 27.9321C28.005 27.8364 28.1801 27.7303 28.3499 27.6189Z" fill="#DC8744"/>
<path d="M36.0001 19.0446V23.0885C36.0001 23.9748 35.3474 24.808 34.1905 25.5404C34.0259 25.6413 33.8508 25.7473 33.6598 25.8429C33.6598 25.8429 33.6545 25.8429 33.6545 25.8482C33.49 25.9385 33.3149 26.0234 33.1291 26.1136C32.5082 26.4055 31.7917 26.6761 31.0063 26.9149C30.8312 26.968 30.6561 27.021 30.4756 27.0741H30.4703C30.3005 27.1219 30.1254 27.1696 29.945 27.2174C29.2763 27.3872 28.5704 27.5411 27.8221 27.6685C27.647 27.7004 27.4719 27.7322 27.2915 27.7588H27.2862C27.111 27.7853 26.9412 27.817 26.7608 27.8383C26.0762 27.9391 25.3704 28.0188 24.638 28.0824C24.4629 28.0983 24.2877 28.1143 24.1073 28.1249H24.102C23.9269 28.1408 23.7571 28.1515 23.5766 28.1621C22.8868 28.2045 22.1756 28.2311 21.4538 28.2364C21.2787 28.2417 21.1036 28.2417 20.9232 28.2417H20.9178C20.7374 28.2417 20.5676 28.2417 20.3925 28.2364C19.6707 28.2311 18.9596 28.2045 18.2697 28.1621C18.0892 28.1515 17.9141 28.1409 17.739 28.1249H17.7337C17.5533 28.1143 17.3834 28.0983 17.2083 28.0824C16.4759 28.0188 15.7701 27.9391 15.0855 27.8383C14.9051 27.8171 14.7299 27.7853 14.5548 27.7588H14.5495C14.3691 27.7322 14.1993 27.7004 14.0242 27.6685C13.2759 27.5411 12.5701 27.3872 11.9013 27.2174C11.7209 27.1696 11.5405 27.1219 11.3707 27.0741H11.3654C11.1849 27.021 11.0151 26.968 10.84 26.9149C10.0546 26.6761 9.33809 26.4055 8.71717 26.1136C8.53144 26.0287 8.35632 25.9385 8.18651 25.8429C8.18651 25.8429 8.1812 25.8429 8.1812 25.8376C7.99547 25.7474 7.82035 25.6466 7.65584 25.5405C6.49895 24.8134 5.84082 23.9748 5.84082 23.0886V19.0447H36.0001V19.0446Z" fill="#F6C358"/>
<path d="M35.9999 19.0446C35.9999 19.9309 35.3472 20.7641 34.1903 21.4859C34.0205 21.5973 33.8454 21.7034 33.6542 21.799C33.4897 21.8945 33.3146 21.9794 33.1289 22.0696C32.508 22.3615 31.7915 22.6269 31.0061 22.871C30.8309 22.924 30.6558 22.9772 30.4754 23.0302H30.4701C30.3003 23.078 30.1251 23.1258 29.9447 23.1735C29.2761 23.3434 28.5702 23.4973 27.8219 23.6247C27.6468 23.6566 27.4717 23.6883 27.2912 23.7148H27.2859C27.1108 23.7414 26.941 23.7733 26.7606 23.7945C26.076 23.8954 25.3701 23.9749 24.6377 24.0386C24.4626 24.0546 24.2875 24.0705 24.1071 24.0811H24.1018C23.9266 24.0969 23.7568 24.1076 23.5764 24.1182C22.8865 24.1607 22.1754 24.1872 21.4536 24.1926C21.2785 24.1979 21.1033 24.1979 20.9229 24.1979H20.9176C20.7372 24.1979 20.5674 24.1979 20.3922 24.1926C19.6705 24.1873 18.9594 24.1607 18.2694 24.1182C18.089 24.1076 17.9139 24.097 17.7387 24.0811H17.7334C17.553 24.0705 17.3832 24.0546 17.2081 24.0386C16.4757 23.9749 15.7699 23.8954 15.0853 23.7945C14.9048 23.7733 14.7297 23.7414 14.5546 23.7148H14.5493C14.3689 23.6883 14.199 23.6566 14.0239 23.6247C13.2756 23.4973 12.5698 23.3434 11.9011 23.1735C11.7207 23.1258 11.5402 23.078 11.3704 23.0302H11.3651C11.1847 22.9772 11.0149 22.9241 10.8398 22.871C10.0543 22.6321 9.33785 22.3615 8.71693 22.0696C8.5312 21.9847 8.35608 21.8945 8.18626 21.799C8.18626 21.799 8.18096 21.799 8.18096 21.7937C7.99523 21.7034 7.82011 21.6026 7.65559 21.4965C6.4987 20.7695 5.84058 19.931 5.84058 19.0447C5.84058 16.2002 12.5963 13.8915 20.9231 13.8915C29.2498 13.8915 35.9999 16.2 35.9999 19.0446Z" fill="#FCD462"/>
<path d="M20.8755 22.7577C20.7258 22.7577 20.583 22.7575 20.4363 22.753C19.7375 22.7476 19.0498 22.7235 18.3581 22.6808C18.1887 22.6707 18.0288 22.6614 17.8692 22.6468L17.804 22.641H17.7772C17.6409 22.6323 17.5105 22.6202 17.3774 22.6082C16.5939 22.5397 15.9273 22.4631 15.2953 22.3698C15.1483 22.3519 15.0466 22.3351 14.9453 22.3187L14.6591 22.2746C14.5492 22.2568 14.281 22.2078 14.281 22.2078C13.5941 22.0906 12.9367 21.951 12.2553 21.7777C12.0962 21.7355 11.9232 21.6898 11.7605 21.6438L11.2573 21.4929C10.6592 21.3111 10.11 21.1114 9.62042 20.8981V20.8925L8.81746 20.5023L8.56293 20.359H8.55286C8.51396 20.3358 8.47483 20.3114 8.43547 20.2862C7.57909 19.748 7.28027 19.2826 7.28027 19.0447C7.28027 17.7357 12.4597 15.3315 20.9227 15.3315C29.3823 15.3315 34.5598 17.7357 34.5598 19.0447C34.5598 19.2814 34.2633 19.7429 33.428 20.2639C33.2508 20.3797 33.1268 20.4526 33.0096 20.5115L32.9318 20.5534C32.8006 20.6296 32.6602 20.6964 32.5123 20.7682C31.9861 21.0157 31.3346 21.2611 30.5788 21.4959C30.4407 21.5376 30.08 21.644 30.08 21.644C29.9169 21.6897 29.7488 21.7356 29.5756 21.7816C28.9086 21.951 28.2511 22.0907 27.58 22.2051C27.4387 22.2309 27.3078 22.2545 27.1764 22.2754L26.8827 22.3209C26.7875 22.3366 26.6924 22.3526 26.5933 22.3642C25.9175 22.4632 25.2513 22.5398 24.5127 22.604C24.3597 22.6181 24.213 22.6315 24.0629 22.6411L23.9711 22.6469C23.8115 22.6614 23.6566 22.6708 23.4922 22.6804C22.7959 22.7236 22.1082 22.7477 21.4431 22.7524C21.2634 22.7575 21.1126 22.7578 20.9603 22.7578C20.9479 22.7577 20.8893 22.7577 20.8755 22.7577Z" fill="#F6C358"/>
<path d="M8.71661 22.0696V26.1135C8.53088 26.0286 8.35576 25.9384 8.18594 25.8428C8.18594 25.8428 8.18064 25.8428 8.18064 25.8375C7.99491 25.7473 7.81979 25.6466 7.65527 25.5404V21.4965C7.81979 21.6025 7.99491 21.7034 8.18064 21.7937C8.18064 21.799 8.18594 21.799 8.18594 21.799C8.35576 21.8944 8.53088 21.9846 8.71661 22.0696Z" fill="#DC8744"/>
<path d="M11.9009 23.1734V27.2174C11.7205 27.1696 11.5401 27.1219 11.3703 27.0741H11.365C11.1845 27.021 11.0147 26.9681 10.8396 26.9149V22.871C11.0147 22.924 11.1845 22.9772 11.365 23.0302H11.3703C11.5401 23.0779 11.7205 23.1257 11.9009 23.1734Z" fill="#DC8744"/>
<path d="M15.085 23.7943V27.8383C14.9046 27.817 14.7295 27.7852 14.5543 27.7587H14.549C14.3686 27.7321 14.1988 27.7003 14.0237 27.6684V23.6245C14.1988 23.6564 14.3686 23.6882 14.549 23.7147H14.5543C14.7295 23.7413 14.9046 23.7731 15.085 23.7943Z" fill="#DC8744"/>
<path d="M18.2691 24.118V28.1621C18.0887 28.1514 17.9136 28.1408 17.7384 28.1248H17.7331C17.5527 28.1142 17.3829 28.0982 17.2078 28.0823V24.0385C17.3829 24.0544 17.5527 24.0703 17.7331 24.0809H17.7384C17.9136 24.0968 18.0887 24.1074 18.2691 24.118Z" fill="#DC8744"/>
<path d="M21.4534 24.1923V28.2363C21.2783 28.2416 21.1032 28.2416 20.9228 28.2416H20.9175C20.737 28.2416 20.5672 28.2416 20.3921 28.2363V24.1923C20.5672 24.1976 20.737 24.1976 20.9175 24.1976H20.9228C21.1032 24.1976 21.2783 24.1976 21.4534 24.1923Z" fill="#DC8744"/>
<path d="M24.6378 24.0385V28.0823C24.4626 28.0982 24.2875 28.1142 24.1071 28.1248H24.1018C23.9267 28.1408 23.7568 28.1514 23.5764 28.1621V24.118C23.7568 24.1074 23.9267 24.0968 24.1018 24.0809H24.1071C24.2874 24.0703 24.4626 24.0544 24.6378 24.0385Z" fill="#DC8744"/>
<path d="M27.8218 23.6245V27.6684C27.6467 27.7003 27.4716 27.7321 27.2912 27.7587H27.2859C27.1107 27.7852 26.9409 27.817 26.7605 27.8383V23.7943C26.9409 23.7731 27.1107 23.7413 27.2859 23.7147H27.2912C27.4716 23.6882 27.6467 23.6564 27.8218 23.6245Z" fill="#DC8744"/>
<path d="M31.0062 22.8709V26.9148C30.831 26.968 30.6559 27.0209 30.4755 27.074H30.4702C30.3004 27.1218 30.1252 27.1695 29.9448 27.2173V23.1733C30.1252 23.1257 30.3004 23.0779 30.4702 23.03H30.4755C30.6558 22.9771 30.831 22.924 31.0062 22.8709Z" fill="#DC8744"/>
<path d="M34.1902 21.4858V25.5403C34.0257 25.6412 33.8506 25.7473 33.6596 25.8428C33.6596 25.8428 33.6543 25.8428 33.6543 25.8481C33.4898 25.9384 33.3146 26.0233 33.1289 26.1135V22.0696C33.3146 21.9793 33.4898 21.8944 33.6543 21.799C33.8453 21.7033 34.0204 21.5972 34.1902 21.4858Z" fill="#DC8744"/>
<path d="M30.1597 12.9115V16.9555C30.1597 17.8417 29.5069 18.6749 28.35 19.4073C28.1855 19.5082 28.0104 19.6143 27.8193 19.7098C27.8193 19.7098 27.814 19.7098 27.814 19.7151C27.6495 19.8054 27.4744 19.8903 27.2887 19.9805C26.6678 20.2724 25.9513 20.5431 25.1659 20.7818C24.9907 20.835 24.8155 20.8879 24.6352 20.941H24.6299C24.4601 20.9888 24.2849 21.0365 24.1045 21.0843C23.4359 21.2541 22.73 21.408 21.9817 21.5354C21.8066 21.5673 21.6315 21.5991 21.451 21.6257H21.4457C21.2706 21.6522 21.1008 21.684 20.9204 21.7053C20.2358 21.806 19.5299 21.8858 18.7975 21.9493C18.6224 21.9652 18.4472 21.9812 18.2669 21.9918H18.2616C18.0864 22.0078 17.9166 22.0184 17.7362 22.029C17.0463 22.0714 16.3352 22.098 15.6134 22.1033C15.4383 22.1086 15.2631 22.1086 15.0827 22.1086H15.0774C14.897 22.1086 14.7272 22.1086 14.552 22.1033C13.8303 22.098 13.1192 22.0714 12.4292 22.029C12.2488 22.0184 12.0737 22.0078 11.8986 21.9918H11.8932C11.7128 21.9812 11.543 21.9652 11.3679 21.9493C10.6355 21.8857 9.92971 21.806 9.24506 21.7053C9.06463 21.684 8.88951 21.6522 8.71439 21.6257H8.70909C8.52866 21.5992 8.35884 21.5673 8.18372 21.5354C7.43542 21.408 6.72963 21.2541 6.0609 21.0843C5.88047 21.0365 5.70005 20.9888 5.53023 20.941H5.52493C5.3445 20.8879 5.17468 20.835 4.99956 20.7818C4.21413 20.5431 3.49766 20.2724 2.87674 19.9805C2.69101 19.8956 2.51589 19.8054 2.34607 19.7098C2.34607 19.7098 2.34076 19.7098 2.34076 19.7045C2.15504 19.6143 1.97991 19.5135 1.8154 19.4074C0.658049 18.6802 0 17.8417 0 16.9555V12.9115H30.1597Z" fill="#F6C358"/>
<path d="M30.1597 12.9115C30.1597 13.7978 29.5069 14.631 28.35 15.3528C28.1802 15.4642 28.0051 15.5703 27.814 15.6659C27.6495 15.7614 27.4743 15.8463 27.2886 15.9365C26.6677 16.2284 25.9512 16.4938 25.1658 16.7379C24.9907 16.7909 24.8155 16.8441 24.6351 16.897H24.6298C24.46 16.9448 24.2849 16.9927 24.1044 17.0403C23.4358 17.2102 22.7299 17.3641 21.9816 17.4915C21.8065 17.5234 21.6314 17.5551 21.451 17.5817H21.4456C21.2705 17.6083 21.1007 17.6401 20.9203 17.6613C20.2357 17.7622 19.5298 17.8417 18.7975 17.9055C18.6223 17.9214 18.4471 17.9373 18.2668 17.9479H18.2615C18.0864 17.9637 17.9166 17.9744 17.7361 17.985C17.0462 18.0275 16.3351 18.0541 15.6133 18.0594C15.4382 18.0647 15.2631 18.0647 15.0826 18.0647H15.0773C14.8969 18.0647 14.7271 18.0647 14.552 18.0594C13.8302 18.0541 13.1191 18.0275 12.4291 17.985C12.2487 17.9744 12.0736 17.9638 11.8985 17.9479H11.8932C11.7127 17.9373 11.5429 17.9214 11.3678 17.9055C10.6354 17.8417 9.92963 17.7622 9.24498 17.6613C9.06456 17.6401 8.88943 17.6083 8.71431 17.5817H8.70901C8.52858 17.5551 8.35877 17.5234 8.18365 17.4915C7.43534 17.3641 6.72956 17.2102 6.06082 17.0403C5.88039 16.9927 5.69997 16.9448 5.53015 16.897H5.52485C5.34442 16.8441 5.17461 16.7909 4.99948 16.7379C4.21405 16.499 3.49758 16.2284 2.87666 15.9365C2.69093 15.8516 2.51581 15.7614 2.34599 15.6659C2.34599 15.6659 2.34069 15.6659 2.34069 15.6606C2.15496 15.5703 1.97984 15.4695 1.81532 15.3634C0.65805 14.6363 0 13.7978 0 12.9115C0 10.067 6.75577 7.75836 15.0825 7.75836C23.4092 7.75836 30.1597 10.067 30.1597 12.9115Z" fill="#FCD462"/>
<path d="M15.037 16.6245C14.8858 16.6245 14.7422 16.6243 14.594 16.6201C13.8975 16.6144 13.2096 16.5903 12.5172 16.5479C12.3494 16.5378 12.1891 16.5284 12.0288 16.5137L11.9636 16.5078H11.9368C11.8005 16.4991 11.6701 16.487 11.537 16.475C10.7535 16.4066 10.0869 16.3299 9.45485 16.2366C9.30932 16.2188 9.209 16.2024 9.10914 16.1863L8.81901 16.1417C8.71239 16.1244 8.4414 16.0747 8.4414 16.0747C7.75629 15.9582 7.09894 15.8186 6.41498 15.6446C6.25493 15.6024 6.08242 15.5567 5.91975 15.511L5.41776 15.3598C4.81967 15.178 4.27025 14.9785 3.78017 14.765V14.7594L2.97652 14.3687L2.72222 14.2259H2.71261C2.67371 14.2027 2.63481 14.1786 2.59568 14.1535C1.73883 13.6147 1.43994 13.1492 1.43994 12.9116C1.43994 11.6027 6.61939 9.19839 15.0824 9.19839C23.542 9.19839 28.7195 11.6026 28.7195 12.9116C28.7195 13.1483 28.423 13.6098 27.5876 14.1313C27.4107 14.2466 27.2862 14.3197 27.1693 14.3783L27.0915 14.4203C26.9603 14.4965 26.8198 14.5633 26.672 14.635C26.1458 14.8825 25.4943 15.1279 24.7384 15.3627L24.2397 15.5111C24.077 15.5568 23.9096 15.6025 23.7371 15.6479C23.0659 15.8186 22.4084 15.9582 21.74 16.0719C21.5949 16.0981 21.4609 16.1228 21.3266 16.1441L21.0399 16.1881C20.9454 16.2036 20.851 16.2195 20.7528 16.231C20.077 16.3299 19.4108 16.4066 18.6722 16.4708C18.5203 16.4846 18.373 16.4982 18.2227 16.5078L18.1306 16.5137C17.9705 16.5282 17.8148 16.5378 17.6499 16.5476C16.9552 16.5903 16.2673 16.6144 15.6022 16.6194C15.4238 16.6243 15.2721 16.6245 15.1191 16.6245C15.1071 16.6245 15.0503 16.6245 15.037 16.6245Z" fill="#F6C358"/>
<path d="M2.87628 15.9365V19.9804C2.69055 19.8956 2.51543 19.8053 2.34561 19.7098C2.34561 19.7098 2.3403 19.7098 2.3403 19.7045C2.15458 19.6143 1.97945 19.5135 1.81494 19.4073V15.3634C1.97945 15.4695 2.15458 15.5704 2.3403 15.6606C2.3403 15.6659 2.34561 15.6659 2.34561 15.6659C2.51543 15.7614 2.69055 15.8516 2.87628 15.9365Z" fill="#DC8744"/>
<path d="M6.0606 17.0403V21.0844C5.88018 21.0365 5.69975 20.9888 5.52994 20.9411H5.52463C5.34421 20.8879 5.17439 20.835 4.99927 20.7818V16.7379C5.17439 16.791 5.34421 16.8441 5.52463 16.897H5.52994C5.69975 16.9449 5.88018 16.9927 6.0606 17.0403Z" fill="#DC8744"/>
<path d="M9.24469 17.6612V21.7052C9.06426 21.684 8.88914 21.6521 8.71402 21.6256H8.70871C8.52829 21.5991 8.35847 21.5672 8.18335 21.5354V17.4914C8.35847 17.5233 8.52829 17.5551 8.70871 17.5816H8.71402C8.88914 17.6082 9.06426 17.6401 9.24469 17.6612Z" fill="#DC8744"/>
<path d="M12.4288 17.985V22.029C12.2483 22.0184 12.0732 22.0078 11.8981 21.9918H11.8928C11.7124 21.9812 11.5426 21.9652 11.3674 21.9493V17.9054C11.5426 17.9213 11.7124 17.9372 11.8928 17.9478H11.8981C12.0732 17.9637 12.2483 17.9744 12.4288 17.985Z" fill="#DC8744"/>
<path d="M15.6131 18.0593V22.1032C15.438 22.1085 15.2628 22.1085 15.0824 22.1085H15.0771C14.8967 22.1085 14.7269 22.1085 14.5518 22.1032V18.0593C14.7269 18.0646 14.8967 18.0646 15.0771 18.0646H15.0824C15.2628 18.0646 15.438 18.0646 15.6131 18.0593Z" fill="#DC8744"/>
<path d="M18.7974 17.9054V21.9493C18.6223 21.9652 18.4471 21.9812 18.2668 21.9918H18.2614C18.0863 22.0077 17.9165 22.0184 17.7361 22.029V17.985C17.9165 17.9744 18.0863 17.9637 18.2614 17.9478H18.2668C18.4471 17.9372 18.6222 17.9214 18.7974 17.9054Z" fill="#DC8744"/>
<path d="M21.9815 17.4914V21.5354C21.8064 21.5672 21.6313 21.599 21.4508 21.6256H21.4455C21.2704 21.6521 21.1006 21.6839 20.9202 21.7052V17.6612C21.1006 17.64 21.2704 17.6082 21.4455 17.5816H21.4508C21.6313 17.5552 21.8064 17.5233 21.9815 17.4914Z" fill="#DC8744"/>
<path d="M25.1658 16.7378V20.7818C24.9907 20.8349 24.8155 20.8878 24.6352 20.941H24.6299C24.46 20.9887 24.2849 21.0364 24.1045 21.0843V17.0403C24.2849 16.9926 24.46 16.9448 24.6299 16.897H24.6352C24.8155 16.844 24.9906 16.7909 25.1658 16.7378Z" fill="#DC8744"/>
<path d="M28.3499 15.3527V19.4072C28.1854 19.5081 28.0103 19.6142 27.8192 19.7097C27.8192 19.7097 27.8139 19.7097 27.8139 19.715C27.6494 19.8053 27.4743 19.8902 27.2886 19.9804V15.9365C27.4743 15.8462 27.6494 15.7614 27.8139 15.6659C28.005 15.5702 28.1801 15.4642 28.3499 15.3527Z" fill="#DC8744"/>
<path d="M36.0001 6.77847V10.8224C36.0001 11.7086 35.3474 12.5419 34.1905 13.2743C34.0259 13.3751 33.8508 13.4812 33.6598 13.5768C33.6598 13.5768 33.6545 13.5768 33.6545 13.5821C33.49 13.6723 33.3149 13.7573 33.1291 13.8474C32.5082 14.1393 31.7917 14.41 31.0063 14.6488C30.8312 14.7019 30.6561 14.7549 30.4756 14.808H30.4703C30.3005 14.8557 30.1254 14.9035 29.945 14.9513C29.2763 15.1211 28.5704 15.2749 27.8221 15.4024C27.647 15.4342 27.4719 15.466 27.2915 15.4926H27.2862C27.111 15.5192 26.9412 15.5509 26.7608 15.5722C26.0762 15.673 25.3704 15.7527 24.638 15.8163C24.4629 15.8322 24.2877 15.8482 24.1073 15.8588H24.102C23.9269 15.8747 23.7571 15.8854 23.5766 15.896C22.8868 15.9384 22.1756 15.965 21.4538 15.9703C21.2787 15.9756 21.1036 15.9756 20.9232 15.9756H20.9178C20.7374 15.9756 20.5676 15.9756 20.3925 15.9703C19.6707 15.965 18.9596 15.9384 18.2697 15.896C18.0892 15.8854 17.9141 15.8748 17.739 15.8588H17.7337C17.5533 15.8482 17.3834 15.8322 17.2083 15.8163C16.4759 15.7526 15.7701 15.673 15.0855 15.5722C14.9051 15.551 14.7299 15.5192 14.5548 15.4926H14.5495C14.3691 15.4661 14.1993 15.4342 14.0242 15.4024C13.2759 15.2749 12.5701 15.1211 11.9013 14.9513C11.7209 14.9035 11.5405 14.8557 11.3707 14.808H11.3654C11.1849 14.7549 11.0151 14.7019 10.84 14.6488C10.0546 14.41 9.33809 14.1393 8.71717 13.8474C8.53144 13.7626 8.35632 13.6723 8.18651 13.5768C8.18651 13.5768 8.1812 13.5768 8.1812 13.5715C7.99547 13.4813 7.82035 13.3805 7.65584 13.2743C6.49895 12.5472 5.84082 11.7087 5.84082 10.8225V6.77847H36.0001Z" fill="#F6C358"/>
<path d="M35.9999 6.77845C35.9999 7.66474 35.3472 8.49791 34.1903 9.21969C34.0205 9.33108 33.8454 9.43724 33.6542 9.53288C33.4897 9.62836 33.3146 9.71323 33.1289 9.80348C32.508 10.0954 31.7915 10.3607 31.0061 10.6048C30.8309 10.6579 30.6558 10.711 30.4754 10.764H30.4701C30.3003 10.8118 30.1251 10.8597 29.9447 10.9073C29.2761 11.0772 28.5702 11.2311 27.8219 11.3585C27.6468 11.3904 27.4717 11.4222 27.2912 11.4487H27.2859C27.1108 11.4753 26.941 11.5071 26.7606 11.5283C26.076 11.6292 25.3701 11.7087 24.6377 11.7725C24.4626 11.7884 24.2875 11.8043 24.1071 11.8149H24.1018C23.9266 11.8307 23.7568 11.8414 23.5764 11.852C22.8865 11.8946 22.1754 11.9211 21.4536 11.9264C21.2785 11.9317 21.1033 11.9317 20.9229 11.9317H20.9176C20.7372 11.9317 20.5674 11.9317 20.3922 11.9264C19.6705 11.9212 18.9594 11.8946 18.2694 11.852C18.089 11.8414 17.9139 11.8308 17.7387 11.8149H17.7334C17.553 11.8043 17.3832 11.7884 17.2081 11.7725C16.4757 11.7087 15.7699 11.6292 15.0853 11.5283C14.9048 11.5071 14.7297 11.4753 14.5546 11.4487H14.5493C14.3689 11.4222 14.199 11.3904 14.0239 11.3585C13.2756 11.2311 12.5698 11.0772 11.9011 10.9073C11.7207 10.8597 11.5402 10.8118 11.3704 10.764H11.3651C11.1847 10.7111 11.0149 10.6579 10.8398 10.6048C10.0543 10.366 9.33785 10.0954 8.71693 9.80348C8.5312 9.71853 8.35608 9.62836 8.18626 9.53288C8.18626 9.53288 8.18096 9.53288 8.18096 9.52757C7.99523 9.43724 7.82011 9.33646 7.65559 9.23037C6.4987 8.50329 5.84058 7.66482 5.84058 6.77852C5.84058 3.934 12.5963 1.62537 20.9231 1.62537C29.2498 1.62537 35.9999 3.93392 35.9999 6.77845Z" fill="#FCD462"/>
<path d="M20.8757 10.4917C20.726 10.4917 20.5832 10.4914 20.4365 10.487C19.7381 10.4814 19.0502 10.4572 18.3578 10.4148C18.1888 10.4047 18.029 10.3951 17.8694 10.3806L17.8042 10.3747H17.7774C17.641 10.366 17.5107 10.3539 17.3776 10.3419C16.595 10.2735 15.9284 10.1968 15.295 10.1037C15.152 10.0861 15.0519 10.0695 14.9523 10.0536L14.6596 10.0087C14.5537 9.99151 14.2813 9.94162 14.2813 9.94162C13.5967 9.82515 12.9393 9.68547 12.2556 9.5115C12.0955 9.4693 11.923 9.42363 11.7608 9.37789L11.256 9.22645C10.6602 9.04526 10.1113 8.84561 9.62075 8.63205V8.62621L8.81779 8.23599L8.56325 8.09278H8.55295C8.51428 8.06979 8.47562 8.04565 8.43718 8.02082C7.57933 7.48177 7.28052 7.0163 7.28052 6.77837C7.28052 5.46942 12.46 3.06516 20.923 3.06516C29.3825 3.06516 34.5601 5.46934 34.5601 6.77837C34.5601 7.01507 34.2636 7.47655 33.4282 7.99807C33.2513 8.11338 33.1268 8.18649 33.0099 8.24506L32.9321 8.28704C32.7985 8.3646 32.6553 8.43256 32.5046 8.50598C31.9868 8.74929 31.3349 8.99467 30.5787 9.22975L30.0802 9.37789C29.9175 9.42363 29.7502 9.4693 29.5776 9.51473C28.9064 9.68539 28.2489 9.82507 27.5805 9.9387C27.4335 9.96545 27.3 9.98982 27.1662 10.0109L26.877 10.0554C26.7829 10.0708 26.6892 10.0865 26.5915 10.0981C25.917 10.197 25.2502 10.2733 24.5128 10.3376C24.3598 10.3517 24.2131 10.365 24.063 10.3747L23.9712 10.3805C23.8116 10.395 23.6567 10.4046 23.4923 10.4142C22.7957 10.4571 22.1079 10.4813 21.4427 10.4862C21.2634 10.4914 21.1126 10.4916 20.9603 10.4916C20.9481 10.4917 20.8895 10.4917 20.8757 10.4917Z" fill="#F6C358"/>
<path d="M8.71661 9.80342V13.8473C8.53088 13.7625 8.35576 13.6722 8.18594 13.5767C8.18594 13.5767 8.18064 13.5767 8.18064 13.5714C7.99491 13.4812 7.81979 13.3804 7.65527 13.2742V9.23032C7.81979 9.3364 7.99491 9.43726 8.18064 9.52751C8.18064 9.53282 8.18594 9.53282 8.18594 9.53282C8.35576 9.6283 8.53088 9.71855 8.71661 9.80342Z" fill="#DC8744"/>
<path d="M11.9009 10.9073V14.9513C11.7205 14.9034 11.5401 14.8557 11.3703 14.808H11.365C11.1845 14.7548 11.0147 14.7019 10.8396 14.6488V10.6048C11.0147 10.6579 11.1845 10.711 11.365 10.764H11.3703C11.5401 10.8118 11.7205 10.8596 11.9009 10.9073Z" fill="#DC8744"/>
<path d="M15.085 11.5282V15.5721C14.9046 15.5509 14.7295 15.5191 14.5543 15.4925H14.549C14.3686 15.466 14.1988 15.4341 14.0237 15.4023V11.3584C14.1988 11.3903 14.3686 11.422 14.549 11.4485H14.5543C14.7295 11.4751 14.9046 11.507 15.085 11.5282Z" fill="#DC8744"/>
<path d="M18.2691 11.8519V15.8959C18.0887 15.8853 17.9136 15.8747 17.7384 15.8587H17.7331C17.5527 15.8481 17.3829 15.8321 17.2078 15.8162V11.7723C17.3829 11.7883 17.5527 11.8042 17.7331 11.8148H17.7384C17.9136 11.8307 18.0887 11.8413 18.2691 11.8519Z" fill="#DC8744"/>
<path d="M21.4534 11.9262V15.9702C21.2783 15.9755 21.1032 15.9755 20.9228 15.9755H20.9175C20.737 15.9755 20.5672 15.9755 20.3921 15.9702V11.9262C20.5672 11.9315 20.737 11.9315 20.9175 11.9315H20.9228C21.1032 11.9315 21.2783 11.9315 21.4534 11.9262Z" fill="#DC8744"/>
<path d="M24.6378 11.7724V15.8163C24.4626 15.8322 24.2875 15.8482 24.1071 15.8588H24.1018C23.9267 15.8747 23.7568 15.8854 23.5764 15.896V11.852C23.7568 11.8414 23.9267 11.8307 24.1018 11.8148H24.1071C24.2874 11.8041 24.4626 11.7883 24.6378 11.7724Z" fill="#DC8744"/>
<path d="M27.8218 11.3584V15.4024C27.6467 15.4342 27.4716 15.466 27.2912 15.4926H27.2859C27.1107 15.5191 26.9409 15.5509 26.7605 15.5722V11.5282C26.9409 11.507 27.1107 11.4751 27.2859 11.4485H27.2912C27.4716 11.4221 27.6467 11.3903 27.8218 11.3584Z" fill="#DC8744"/>
<path d="M31.0062 10.6048V14.6488C30.831 14.7019 30.6559 14.7548 30.4755 14.808H30.4702C30.3004 14.8557 30.1252 14.9034 29.9448 14.9513V10.9073C30.1252 10.8596 30.3004 10.8118 30.4702 10.764H30.4755C30.6558 10.711 30.831 10.6579 31.0062 10.6048Z" fill="#DC8744"/>
<path d="M34.1902 9.2197V13.2742C34.0257 13.3751 33.8506 13.4812 33.6596 13.5767C33.6596 13.5767 33.6543 13.5767 33.6543 13.582C33.4898 13.6723 33.3146 13.7572 33.1289 13.8474V9.80348C33.3146 9.71323 33.4898 9.62836 33.6543 9.53288C33.8453 9.43717 34.0204 9.33109 34.1902 9.2197Z" fill="#DC8744"/>
</g>
<defs>
<clipPath id="clip0">
<rect width="36" height="36" fill="white"/>
</clipPath>
</defs>
</svg>
