<?xml version="1.0" encoding="utf-8"?>
<svg viewBox="0 0 1440 320" xmlns="http://www.w3.org/2000/svg">
  <path fill="#0099ff" fill-opacity="1" d="M -1.623 285.457 L 46.377 324.431 C 94.377 364.137 190.377 440.986 286.377 451.416 C 382.377 461.114 478.377 402.562 574.377 334.313 C 670.377 265.331 766.377 188.481 862.377 178.051 C 958.377 168.354 1054.377 226.907 1150.377 275.76 C 1246.377 323.883 1342.377 364.137 1390.377 382.983 L 1438.377 402.562 L 1438.377 -7.301 L 1390.377 -7.301 C 1342.377 -7.301 1246.377 -7.301 1150.377 -7.301 C 1054.377 -7.301 958.377 -7.301 862.377 -7.301 C 766.377 -7.301 670.377 -7.301 574.377 -7.301 C 478.377 -7.301 382.377 -7.301 286.377 -7.301 C 190.377 -7.301 94.377 -7.301 46.377 -7.301 L -1.623 -7.301 Z" style=""/>
</svg>